<?xml version="1.0" standalone="no"?>
<!DOCTYPE svg PUBLIC "-//W3C//DTD SVG 20010904//EN"
 "http://www.w3.org/TR/2001/REC-SVG-20010904/DTD/svg10.dtd">
<svg version="1.0" xmlns="http://www.w3.org/2000/svg"
 width="372.000000pt" height="389.000000pt" viewBox="0 0 372.000000 389.000000"
 preserveAspectRatio="xMidYMid meet">

<g transform="translate(0.000000,389.000000) scale(0.100000,-0.100000)"
fill="#000000" stroke="none">
<path d="M1035 3348 c-3 -7 -4 -514 -3 -1126 l3 -1113 975 1 975 0 23 26 22
25 0 1064 c0 759 -3 1071 -11 1088 -6 14 -22 30 -36 36 -37 17 -1942 16 -1948
-1z m441 -426 c61 -56 70 -78 49 -127 -8 -21 -15 -58 -15 -82 0 -36 4 -46 20
-50 26 -7 25 -25 0 -48 -19 -17 -20 -29 -18 -129 3 -97 5 -111 20 -108 29 5
30 -17 3 -44 -21 -21 -25 -34 -23 -67 l3 -42 65 0 65 0 3 42 c3 37 6 42 30 45
23 3 27 8 30 39 2 26 9 38 22 42 19 5 19 6 -1 43 -36 72 -18 178 43 244 13 14
51 46 84 72 61 47 174 164 174 180 0 17 27 7 37 -14 19 -41 92 -116 165 -169
88 -64 113 -92 133 -148 21 -61 19 -119 -5 -166 -24 -48 -24 -45 -1 -45 16 0
20 -8 23 -37 2 -30 7 -39 25 -41 18 -3 22 -11 25 -45 l3 -42 53 -3 52 -3 0 45
c0 33 -6 52 -20 66 -11 11 -20 24 -20 29 0 5 9 13 20 16 18 6 20 15 20 116 0
96 -2 111 -20 129 -25 25 -25 36 -1 43 23 6 30 46 18 97 -26 103 -25 105 45
169 l47 42 55 -55 c31 -30 56 -62 56 -70 0 -9 -7 -33 -16 -55 -8 -21 -14 -58
-12 -82 2 -37 7 -45 26 -47 28 -4 28 -14 -3 -43 -23 -23 -25 -30 -25 -131 l0
-107 27 -3 c35 -4 39 -22 11 -50 l-22 -22 3 -317 c3 -311 3 -317 -18 -338 -21
-21 -22 -21 -694 -19 l-672 3 -3 343 c-2 276 -5 342 -16 342 -7 0 -18 11 -24
25 -10 22 -9 25 13 31 25 6 25 8 25 114 0 94 -2 109 -20 125 -11 10 -20 24
-20 30 0 7 9 15 20 18 16 4 20 14 20 50 0 24 -7 61 -15 80 -9 22 -12 44 -7 57
7 20 91 117 102 118 3 1 28 -20 56 -46z"/>
<path d="M1965 2094 c-97 -97 -105 -118 -105 -269 l0 -125 183 2 182 3 0 131
0 131 -35 52 c-29 43 -136 141 -154 141 -3 0 -34 -30 -71 -66z"/>
<path d="M1500 2032 l-55 -55 -3 -148 -4 -149 126 0 c113 0 126 2 127 18 0 9
-1 55 -2 102 -1 47 -2 104 -3 127 -1 39 -7 48 -66 103 -35 33 -65 59 -65 58 0
-1 -25 -26 -55 -56z"/>
<path d="M2423 2024 l-63 -63 0 -135 0 -136 125 0 125 0 -1 142 c-1 158 9 133
-90 224 l-34 31 -62 -63z"/>
<path d="M847 3336 c-86 -31 -153 -95 -196 -186 l-26 -55 0 -1140 c0 -1312 -8
-1204 95 -1306 31 -31 76 -67 101 -80 l44 -24 1063 -3 c732 -2 1069 1 1082 8
19 10 20 22 20 208 0 141 -3 201 -12 210 -17 17 -182 16 -196 -1 -6 -7 -13
-58 -14 -113 l-3 -99 -940 -2 -940 -3 -40 23 c-113 64 -123 215 -19 293 22 16
42 33 46 39 4 5 7 512 5 1125 -2 982 -4 1115 -17 1117 -8 1 -32 -4 -53 -11z"/>
</g>
</svg>
